HIERARCHY
ROOT root
{
	OFFSET 0.000000 0.000000 0.000000
	CHANNELS 6 Xposition Yposition Zposition Zrotation Yrotation Xrotation
	JOINT lhip
	{
		OFFSET 0.058581 -0.082280 -0.017664
		CHANNELS 3 Zrotation Yrotation Xrotation
		JOINT lknee
		{
			OFFSET 0.043451 -0.386469 0.008037
			CHANNELS 3 Zrotation Yrotation Xrotation
			JOINT lankle
			{
				OFFSET -0.014790 -0.426874 -0.037428
				CHANNELS 3 Zrotation Yrotation Xrotation
				JOINT ltoe
				{
					OFFSET 0.041054 -0.060286 0.122042
					CHANNELS 3 Zrotation Yrotation Xrotation
					End Site
					{
						OFFSET 0.000000 0.000000 0.000000
					}
				}
			}
		}
	}
	JOINT rhip
	{
		OFFSET -0.060310 -0.090513 -0.013543
		CHANNELS 3 Zrotation Yrotation Xrotation
		JOINT rknee
		{
			OFFSET -0.043257 -0.383688 -0.004843
			CHANNELS 3 Zrotation Yrotation Xrotation
			JOINT rankle
			{
				OFFSET 0.019056 -0.420046 -0.034562
				CHANNELS 3 Zrotation Yrotation Xrotation
				JOINT rtoe
				{
					OFFSET -0.034840 -0.062106 0.130323
					CHANNELS 3 Zrotation Yrotation Xrotation
					End Site
					{
						OFFSET 0.000000 0.000000 0.000000
					}
				}
			}
		}
	}
	JOINT lowerback
	{
		OFFSET 0.004439 0.124404 -0.038385
		CHANNELS 3 Zrotation Yrotation Xrotation
		JOINT upperback
		{
			OFFSET 0.004488 0.137956 0.026820
			CHANNELS 3 Zrotation Yrotation Xrotation
			JOINT chest
			{
				OFFSET -0.002265 0.056032 0.002855
				CHANNELS 3 Zrotation Yrotation Xrotation
				JOINT lowerneck
				{
					OFFSET -0.013390 0.211636 -0.033468
					CHANNELS 3 Zrotation Yrotation Xrotation
					JOINT upperneck
					{
						OFFSET 0.010113 0.088937 0.050410
						CHANNELS 3 Zrotation Yrotation Xrotation
						End Site
						{
							OFFSET 0.000000 0.000000 0.000000
						}
					}
				}
				JOINT lclavicle
				{
					OFFSET 0.071702 0.114000 -0.018898
					CHANNELS 3 Zrotation Yrotation Xrotation
					JOINT lshoulder
					{
						OFFSET 0.122921 0.045205 -0.019046
						CHANNELS 3 Zrotation Yrotation Xrotation
						JOINT lelbow
						{
							OFFSET 0.255332 -0.015649 -0.022946
							CHANNELS 3 Zrotation Yrotation Xrotation
							JOINT lwrist
							{
								OFFSET 0.265709 0.012698 -0.007375
								CHANNELS 3 Zrotation Yrotation Xrotation
								End Site
								{
									OFFSET 0.000000 0.000000 0.000000
								}
							}
						}
					}
				}
				JOINT rclavicle
				{
					OFFSET -0.082954 0.112472 -0.023707
					CHANNELS 3 Zrotation Yrotation Xrotation
					JOINT rshoulder
					{
						OFFSET -0.113228 0.046853 -0.008472
						CHANNELS 3 Zrotation Yrotation Xrotation
						JOINT relbow
						{
							OFFSET -0.260127 -0.014369 -0.031269
							CHANNELS 3 Zrotation Yrotation Xrotation
							JOINT rwrist
							{
								OFFSET -0.269108 0.006794 -0.006027
								CHANNELS 3 Zrotation Yrotation Xrotation
								End Site
								{
									OFFSET 0.000000 0.000000 0.000000
								}
							}
						}
					}
				}
			}
		}
	}
}
MOTION
Frames: 6
Frame Time: 0.033333
1.757790 0.725761 0.985520 -88.747588 2.553720 86.384051 1.571330 -0.342040 5.776993 -2.474085 -14.646305 3.640059 5.595021 10.662003 -18.775900 0.000000 -0.000000 0.000000 2.889284 -3.864486 3.107617 3.274655 0.563802 8.034161 2.671276 -7.058567 -15.125509 0.000000 -0.000000 0.000000 -2.527642 3.982892 3.776587 2.354456 -0.482141 2.330933 1.231680 -1.320244 5.923375 6.628385 -0.725102 14.424336 2.576909 -3.667008 17.820356 -24.575916 8.276127 4.883057 -61.922167 -5.087277 6.280484 11.720494 -15.915762 3.501109 -3.706658 0.897693 -7.314812 23.364195 -7.366643 2.923969 62.839492 0.477548 9.190839 -16.007864 17.794279 -5.238793 7.216633 -0.485620 -9.503722 
1.757276 0.725910 0.985335 -88.917005 2.563372 86.409663 1.606662 -0.425491 5.826191 -2.537483 -14.463505 3.593058 5.593742 10.708264 -18.740857 0.000000 -0.000000 0.000000 2.865458 -4.054203 3.085357 3.257176 0.787694 8.012950 2.693131 -6.874813 -15.120730 0.000000 -0.000000 0.000000 -2.587484 4.088253 3.791861 2.401154 -0.525686 2.346852 1.272182 -1.320673 5.943634 6.680422 -0.428438 14.680353 2.711546 -3.180234 17.475371 -24.469210 8.455187 5.070620 -61.981696 -4.661794 6.131542 11.318584 -14.138689 3.757159 -4.003159 0.807940 -7.040065 23.345495 -7.670383 2.956025 62.918578 0.214152 8.935177 -15.445589 16.375981 -5.128888 7.703788 -0.583817 -9.858947 
1.757225 0.725854 0.985097 -88.948934 2.606514 86.524919 1.602117 -0.343511 5.624461 -2.469603 -14.361423 3.726201 5.523753 10.630548 -18.803208 0.000000 -0.000000 0.000000 2.919729 -4.030434 2.805511 3.221336 0.678484 8.263953 2.664969 -6.698723 -15.175834 0.000000 -0.000000 0.000000 -2.520221 4.041025 3.955808 2.437667 -0.461921 2.082924 1.281384 -1.322680 5.944595 6.663948 -0.627304 14.659349 2.464482 -3.261331 17.392315 -24.616539 9.113557 5.210936 -62.117190 -4.136099 6.009363 11.516389 -13.807540 3.806997 -4.036736 0.655742 -6.666205 23.463435 -8.132885 3.053256 62.827218 -0.159971 8.785787 -15.349649 15.567300 -4.883606 7.438917 -0.634487 -9.252634 
1.756463 0.725813 0.985111 -88.893816 2.632372 86.443680 1.625015 -0.489361 5.763773 -2.504359 -14.338231 3.760755 5.541251 10.706741 -18.822546 0.000000 -0.000000 0.000000 2.930538 -4.109112 2.990076 3.249456 0.727386 8.186936 2.637091 -6.711077 -15.265867 0.000000 -0.000000 0.000000 -2.475151 4.011480 4.056729 2.469213 -0.468007 2.160175 1.281487 -1.303138 5.934472 6.757733 -0.865044 14.445237 2.544216 -3.474093 16.975412 -24.764877 9.571413 5.393276 -62.082873 -3.624896 6.006694 11.606304 -14.685077 4.093747 -4.694177 1.171439 -6.672814 23.386874 -8.315749 3.002527 63.181584 -0.634277 8.613486 -15.326723 15.434904 -5.170096 8.088049 -0.813835 -9.861985 
1.756150 0.725637 0.985075 -88.840934 2.623440 86.353136 1.632213 -0.502880 5.908516 -2.546031 -14.407339 3.712337 5.498827 10.664121 -18.870307 0.000000 -0.000000 0.000000 2.886906 -4.169033 3.150262 3.253398 0.698343 8.123691 2.641793 -6.732124 -15.247273 0.000000 -0.000000 0.000000 -2.428505 3.959738 4.143657 2.453414 -0.488119 2.223771 1.251350 -1.312561 5.941831 6.777681 -0.981784 14.444454 2.499596 -3.538175 16.990937 -24.823323 9.746132 5.458305 -62.101789 -3.532417 6.009579 11.629394 -15.244369 4.076000 -4.653841 1.019149 -6.934084 23.437492 -8.351497 3.055443 63.260514 -0.674585 8.554883 -15.459269 15.542298 -5.280992 8.088589 -0.754093 -9.910301 
1.755997 0.725719 0.985061 -88.784100 2.625847 86.336922 1.640074 -0.465544 5.909290 -2.528898 -14.385690 3.763480 5.505542 10.630364 -18.923194 0.000000 -0.000000 0.000000 2.849254 -4.260242 3.118086 3.324273 0.683544 8.281812 2.679323 -6.693300 -15.270792 0.000000 -0.000000 0.000000 -2.421177 3.911760 4.153009 2.433904 -0.518463 2.261259 1.252626 -1.316361 5.985621 6.877381 -0.972558 14.206205 2.681702 -3.508481 16.820479 -24.967935 9.816722 5.373018 -62.039963 -3.544158 6.014056 11.526235 -16.122791 3.958014 -4.243470 0.955120 -6.983971 23.451749 -8.484311 3.001321 63.314670 -0.743933 8.537904 -15.416397 16.262983 -5.339625 7.958261 -0.767040 -9.905944 
